<svg viewBox="0 0 32 32" xmlns="http://www.w3.org/2000/svg" width="24" height="24" fill="none" stroke="#9B9B9B"
     stroke-linecap="round" stroke-linejoin="round" stroke-width="2px">
    <line class="cls-1" x1="29" x2="16" y1="16" y2="16"/>
    <path stroke-width="0" fill="#9B9B9B"
          d="M24,25v3H8V4H24V7h2V3a1,1,0,0,0-1-1H7A1,1,0,0,0,6,3V29a1,1,0,0,0,1,1H25a1,1,0,0,0,1-1V25Z"/>
    <line class="cls-1" x1="16" x2="20" y1="16" y2="12"/>
    <line class="cls-1" x1="16" x2="20" y1="16" y2="20"/>
    <line class="cls-1" x1="25" x2="25" y1="8" y2="6"/>
    <line class="cls-1" x1="25" x2="25" y1="26" y2="24"/>
</svg>
