<svg width="24" height="24" viewBox="0 0 42 55" fill="transparent" xmlns="http://www.w3.org/2000/svg"
     stroke="#9B9B9B" stroke-width="2" stroke-miterlimit="10" stroke-linecap="round">
    <path
            d="M38.4812 6.95941H31.303V8.33565C31.3027 8.61034 31.1929 8.87369 30.9977 9.06792C30.8025 9.26216 30.5379 9.37142 30.2618 9.37174H11.7382C11.4621 9.37142 11.1975 9.26216 11.0023 9.06792C10.8071 8.87369 10.6973 8.61034 10.697 8.33565V6.95941H3.51879C3.19215 6.95527 2.86789 7.01519 2.56452 7.13576C2.26116 7.25633 1.98463 7.43518 1.75073 7.66211C1.51684 7.88903 1.33015 8.15958 1.20134 8.4583C1.07253 8.75702 1.00411 9.07807 1 9.4031V51.5561C1.00411 51.8811 1.07253 52.2022 1.20134 52.5009C1.33015 52.7996 1.51684 53.0702 1.75073 53.2971C1.98463 53.524 2.26116 53.7029 2.56452 53.8234C2.86789 53.944 3.19215 54.0039 3.51879 53.9998H38.4812C38.8079 54.0039 39.1321 53.944 39.4355 53.8234C39.7388 53.7029 40.0154 53.524 40.2493 53.2971C40.4832 53.0702 40.6699 52.7996 40.7987 52.5009C40.9275 52.2022 40.9959 51.8811 41 51.5561V9.4031C40.9959 9.07807 40.9275 8.75702 40.7987 8.4583C40.6699 8.15958 40.4832 7.88903 40.2493 7.66211C40.0154 7.43518 39.7388 7.25633 39.4355 7.13576C39.1321 7.01519 38.8079 6.95527 38.4812 6.95941Z"/>
    <path
            d="M30.0715 4.54709H24.0303V4.0984C24.0421 3.41673 23.8241 2.75077 23.411 2.20683C22.998 1.66289 22.4137 1.27232 21.7515 1.09746C21.3088 0.982451 20.8457 0.969039 20.3971 1.05824C19.9485 1.14744 19.5261 1.33692 19.1618 1.61237C18.7976 1.88782 18.501 2.24203 18.2945 2.64825C18.0879 3.05447 17.9769 3.50208 17.9697 3.95727V4.54709H11.9285C11.6019 4.54709 11.2886 4.6762 11.0577 4.90602C10.8267 5.13584 10.697 5.44754 10.697 5.77255V8.14628C10.697 8.47129 10.8267 8.783 11.0577 9.01281C11.2886 9.24263 11.6019 9.37174 11.9285 9.37174H30.0715C30.3981 9.37174 30.7114 9.24263 30.9423 9.01281C31.1733 8.783 31.303 8.47129 31.303 8.14628V5.77255C31.303 5.44754 31.1733 5.13584 30.9423 4.90602C30.7114 4.6762 30.3981 4.54709 30.0715 4.54709Z"/>
    <path d="M11.9091 17.8149H33.7272"/>
    <path d="M4.63635 16.6087L5.84847 17.8149L9.48484 12.9902"/>
    <path d="M11.9091 27.4642H33.7272"/>
    <path d="M4.63635 26.258L5.84847 27.4642L9.48484 22.6395"/>
    <path d="M11.9091 37.1135H33.7272"/>
    <path d="M4.63635 35.9073L5.84847 37.1135L9.48484 32.2889"/>
    <path d="M11.9091 46.7628H33.7272"/>
    <path d="M4.63635 45.5567L5.84847 46.7628L9.48484 41.9382"/>
</svg>
