<svg width="24" height="24" viewBox="0 0 20 20" fill="#9B9B9B" xmlns="http://www.w3.org/2000/svg">
    <path d="M8.48441 2.45322C6.48441 3.60947 4.83206 4.5704 4.81644 4.58603C4.79691 4.60165 4.77738 5.91025 4.76566 7.49228L4.74613 10.3712L4.543 10.3907C4.21097 10.4259 3.98441 10.6602 3.98441 10.9767C3.98441 11.1524 3.83988 11.3985 3.67972 11.5118C3.41019 11.6915 3.08597 11.6602 2.80863 11.4298C2.65628 11.3009 2.46097 11.2501 2.28128 11.2892C2.17191 11.3165 2.043 11.4142 1.75003 11.7071C1.53519 11.9181 1.33597 12.1368 1.30472 12.1954C1.20316 12.3868 1.23441 12.5821 1.41019 12.8438C1.64456 13.1954 1.65628 13.4962 1.43753 13.7735C1.33206 13.9024 1.07816 14.0196 0.894563 14.0235C0.714875 14.0235 0.507844 14.1602 0.421906 14.336C0.332063 14.5157 0.320344 15.4767 0.406281 15.6798C0.484406 15.8634 0.664094 15.9767 0.941438 16.0157C1.21097 16.0548 1.32034 16.1134 1.46488 16.3048C1.66409 16.5665 1.64456 16.8673 1.40628 17.1876C1.28128 17.3556 1.25003 17.4298 1.25003 17.5665C1.25003 17.6602 1.27347 17.7852 1.30472 17.8438C1.39456 18.0118 2.12113 18.7032 2.23831 18.7345C2.42191 18.7774 2.64456 18.7267 2.80472 18.5977C3.14456 18.3321 3.48831 18.3282 3.76175 18.586C3.91409 18.7306 3.94925 18.8009 3.98441 19.0665C4.02347 19.336 4.14066 19.5196 4.32034 19.5938C4.52347 19.6798 5.48441 19.6681 5.66409 19.5782C5.83988 19.4923 5.97659 19.2852 5.97659 19.1056C5.9805 18.922 6.09769 18.6681 6.22659 18.5626C6.50394 18.3438 6.80472 18.3556 7.15628 18.5899C7.418 18.7657 7.61331 18.797 7.80472 18.6954C7.86331 18.6642 8.08206 18.4649 8.293 18.2501C8.58597 17.9571 8.68363 17.8282 8.71097 17.7188C8.75003 17.5352 8.70316 17.3517 8.55472 17.172C8.40628 16.9806 8.34378 16.7892 8.37894 16.6095C8.44144 16.2657 8.65238 16.0665 9.01566 16.0157C9.14456 16.0001 9.28519 15.9649 9.32816 15.9415C9.39847 15.9063 9.59769 16.0079 10.7618 16.6798C11.5078 17.1095 12.1563 17.461 12.2032 17.461C12.25 17.461 12.875 17.1212 13.5938 16.7071C14.3125 16.2892 15.9297 15.3556 17.1875 14.6329C18.4453 13.9063 19.5117 13.2774 19.5625 13.2306L19.6485 13.1524V8.92197V4.6915L19.5625 4.59384C19.4492 4.47275 12.3047 0.351654 12.2032 0.351654C12.1602 0.351654 10.4883 1.29697 8.48441 2.45322ZM15.5782 2.89072C17.3438 3.91025 18.7891 4.754 18.7891 4.76572C18.7891 4.78134 18.3399 5.05087 17.793 5.36728L16.793 5.9415L16.6133 5.83993C15.7071 5.33603 10.1953 2.1329 10.1953 2.11337C10.1993 2.10165 10.6485 1.83212 11.1993 1.51572C12.0899 1.0079 12.2149 0.94931 12.2891 0.988373C12.3321 1.01572 13.8164 1.87119 15.5782 2.89072ZM12.8828 4.32431C14.6602 5.34775 16.1368 6.20322 16.1641 6.23056C16.2071 6.26962 16.0743 6.35947 15.5235 6.67587C15.1407 6.89462 14.8164 7.07822 14.8047 7.08212C14.7891 7.08603 13.293 6.23056 11.4727 5.17978L8.16409 3.27353L8.8555 2.86728C9.23831 2.64853 9.57425 2.46494 9.60159 2.46494C9.63284 2.46103 11.1094 3.29697 12.8828 4.32431ZM10.9219 5.49618C12.7305 6.54306 14.2071 7.41025 14.1953 7.42587C14.1875 7.4415 13.7305 7.71103 13.1836 8.02743C12.4805 8.43368 12.1719 8.58993 12.1368 8.56259C12.1133 8.54306 11.5118 8.1915 10.8008 7.78134C6.23831 5.15634 5.58597 4.76962 5.63284 4.73837C5.73441 4.67587 7.59769 3.59775 7.61331 3.59384C7.62113 3.59384 9.10941 4.44931 10.9219 5.49618ZM19.0547 12.9142C19.0196 12.9415 12.9844 16.4298 12.4922 16.7071C12.4727 16.7149 12.461 15.004 12.461 12.8985V9.07822L13.4883 8.48447L14.5118 7.89462L14.5196 9.4454C14.5313 10.9727 14.5313 10.9962 14.6133 11.0626C14.6602 11.1017 14.7344 11.1329 14.7813 11.1329C14.9141 11.1329 16.9649 9.9454 17.0196 9.83603C17.0586 9.76962 17.0703 9.32431 17.0703 8.08212V6.41415L18.0782 5.83603L19.0821 5.254L19.0938 9.06259C19.1016 12.0743 19.0899 12.879 19.0547 12.9142ZM8.63284 7.16415L11.8946 9.05087L11.9063 12.879L11.9141 16.711L10.7735 16.0548L9.62894 15.3946L9.60941 14.8673C9.58988 14.3751 9.58206 14.336 9.49222 14.2384C9.36331 14.0977 9.21097 14.0235 9.05863 14.0235C8.86722 14.0235 8.60159 13.879 8.49613 13.7149C8.30863 13.4337 8.33206 13.1524 8.57425 12.836C8.83988 12.4884 8.78909 12.2657 8.33206 11.7931C7.92581 11.3712 7.78128 11.2774 7.55472 11.2774C7.42191 11.2774 7.33597 11.3087 7.17972 11.4181C6.90238 11.6056 6.76956 11.6524 6.58206 11.6212C6.25784 11.5704 5.97659 11.2579 5.97659 10.9415C5.97659 10.672 5.76175 10.4298 5.49222 10.4024L5.31253 10.379V7.82822C5.31253 6.42197 5.32425 5.27353 5.34378 5.27353C5.35941 5.27743 6.83988 6.12509 8.63284 7.16415ZM16.5235 8.15634V9.55087L15.8008 9.96884L15.0782 10.3868V8.97275L15.0821 7.55868L15.7735 7.16025C16.1524 6.9415 16.4766 6.76181 16.4961 6.76181C16.5117 6.7579 16.5235 7.38681 16.5235 8.15634ZM5.44534 11.1056C5.58206 12.0001 6.6055 12.4688 7.34769 11.9688C7.45706 11.8946 7.55863 11.836 7.57034 11.836C7.6055 11.836 8.16409 12.3946 8.16409 12.4298C8.16409 12.4493 8.10941 12.5352 8.04691 12.6251C7.60941 13.2267 7.84769 14.1212 8.53128 14.4376C8.64066 14.4884 8.80472 14.5392 8.89456 14.5548L9.06253 14.5782V15.0235V15.4688H8.94534C8.76566 15.4688 8.42581 15.6134 8.25003 15.7618C8.06253 15.922 7.86331 16.3048 7.82816 16.5665C7.793 16.8243 7.87503 17.1563 8.03128 17.3907L8.168 17.5938L7.85941 17.9024L7.54691 18.2149L7.39847 18.0938C6.97659 17.7618 6.34378 17.7774 5.90238 18.1251C5.66019 18.3165 5.51956 18.5548 5.46097 18.8634L5.41409 19.1017H4.9805H4.543L4.51956 18.9102C4.45316 18.3556 3.96878 17.9102 3.38284 17.8634C3.08206 17.836 2.87113 17.8946 2.61331 18.0704L2.40628 18.2071L2.10159 17.8985L1.793 17.5938L1.92972 17.3868C2.1055 17.129 2.16409 16.9181 2.13675 16.6173C2.08988 16.0313 1.64456 15.547 1.08988 15.4806L0.898469 15.4571V15.0196V14.5782L1.08206 14.5509C1.50394 14.4884 1.84378 14.2345 2.03909 13.8321C2.168 13.5704 2.168 13.0626 2.03519 12.8126C1.98441 12.7149 1.90628 12.5977 1.86331 12.547L1.78128 12.4571L2.09769 12.1407L2.41409 11.8243L2.543 11.9259C3.14456 12.379 4.06253 12.1759 4.39066 11.5157C4.44534 11.4063 4.50394 11.2306 4.51566 11.1251L4.543 10.9376H4.9805H5.42191L5.44534 11.1056Z"/>
    <path d="M4.41406 12.7187C3.55469 12.9453 2.85547 13.668 2.67578 14.5156C2.32031 16.1914 3.80469 17.6797 5.48047 17.3242C6.34375 17.1406 7.0625 16.4453 7.28516 15.5664C7.35547 15.293 7.36328 14.8164 7.30078 14.5234C7.27734 14.4101 7.1875 14.168 7.10547 13.9883C6.82422 13.3828 6.19531 12.8711 5.53906 12.7148C5.23047 12.6445 4.69531 12.6445 4.41406 12.7187ZM5.51953 13.2812C5.66016 13.3242 5.88281 13.4336 6.01563 13.5234C6.80078 14.0469 7.03516 15.1797 6.52734 15.9687C5.875 16.9726 4.54297 17.125 3.70703 16.293C3.00391 15.5898 2.98438 14.5195 3.65625 13.7891C4.02344 13.3945 4.44141 13.207 4.96484 13.207C5.16016 13.2031 5.35547 13.2305 5.51953 13.2812Z"/>
</svg>
