<svg width="30" height="30" viewBox="0 0 30 30" xmlns="http://www.w3.org/2000/svg" fill="white">
    <path d="M29.5849 27.6758L21.8462 19.9371C26.0735 14.653 25.2212 6.9144 19.9371 2.68713C14.653 -1.54014 6.9144 -0.687872 2.68713 4.59622C-1.54014 9.88031 -0.687872 17.6189 4.59622 21.8462C6.77804 23.5849 9.47122 24.5394 12.2667 24.5394C15.0621 24.5394 17.7553 23.5849 19.9371 21.8462L27.6758 29.5849C28.1871 30.0962 29.0053 30.1303 29.5508 29.6189L29.5849 29.5849C30.0962 29.0735 30.0621 28.2212 29.5849 27.6758ZM12.2667 21.8121C6.98258 21.8121 2.72122 17.5508 2.72122 12.2667C2.72122 6.98258 6.98258 2.72122 12.2667 2.72122C17.5508 2.72122 21.8121 6.98258 21.8121 12.2667C21.8121 17.5508 17.5508 21.8121 12.2667 21.8121Z"/>
</svg>
